<?xml version="1.0" encoding="UTF-8"?>
<svg id="Calque_2" data-name="Calque 2" xmlns="http://www.w3.org/2000/svg" viewBox="0 0 1919.95 177.61">
  <defs>
    <style>
      .cls-1 {
        fill: #b36443;
      }

      .cls-1, .cls-2 {
        stroke-width: 0px;
      }

      .cls-2 {
        fill: #7a3129;
      }
    </style>
  </defs>
  <g id="montagne_gauche" data-name="montagne gauche">
    <g id="Montagne_gauche" data-name="Montagne gauche">
      <polygon class="cls-2" points="796.42 46.77 688.34 24 662.74 158.71 625.76 160.48 605.85 69.97 349.97 49.53 335.86 166.1 319.99 167.53 311.26 53.01 283.12 55.55 233.08 113.37 24.11 143.84 0 177.61 853.31 177.61 796.42 46.77"/>
      <g>
        <polygon class="cls-1" points="81.78 177.61 0 177.61 24.11 143.84 81.78 135.43 81.78 177.61"/>
        <polygon class="cls-1" points="142.22 126.62 154.66 124.8 154.66 177.61 142.22 177.61 142.22 126.62"/>
        <polygon class="cls-1" points="234.66 111.55 280.53 58.54 280.53 177.61 234.66 177.61 234.66 111.55"/>
        <polygon class="cls-1" points="335.99 165.04 349.97 49.53 350.92 49.6 350.92 177.61 335.99 177.61 335.99 165.04"/>
        <polygon class="cls-1" points="476.79 59.66 491.72 60.85 491.72 177.61 476.79 177.61 476.79 59.66"/>
        <polygon class="cls-1" points="506.65 62.04 530.12 63.92 530.12 177.61 506.65 177.61 506.65 62.04"/>
        <polygon class="cls-1" points="662.38 158.73 662.74 158.71 687.98 25.87 687.98 177.61 662.38 177.61 662.38 158.73"/>
      </g>
    </g>
  </g>
  <g id="montagne_droite" data-name="montagne droite">
    <g id="Montagne_droite" data-name="Montagne droite">
      <polygon class="cls-1" points="1919.95 0 1303.43 55.55 1253.4 113.37 1044.42 143.84 1020.31 177.61 1919.95 177.61 1919.95 0"/>
      <g>
        <polygon class="cls-2" points="1400.85 46.77 1400.85 177.61 1375.25 177.61 1375.25 49.08 1400.85 46.77"/>
        <polygon class="cls-2" points="1850.26 6.28 1919.95 0 1919.95 177.61 1850.26 177.61 1850.26 6.28"/>
        <polygon class="cls-2" points="1757.82 14.61 1757.82 177.61 1607.07 177.61 1607.07 28.19 1757.82 14.61"/>
        <polygon class="cls-2" points="1582.89 30.37 1582.89 177.61 1443.51 177.61 1443.51 42.93 1582.89 30.37"/>
        <polygon class="cls-2" points="1237.3 115.72 1253.3 113.38 1253.3 177.61 1237.3 177.61 1237.3 115.72"/>
      </g>
    </g>
  </g>
</svg>