<?xml version="1.0" encoding="utf-8"?>
<!-- Generator: Adobe Illustrator 28.0.0, SVG Export Plug-In . SVG Version: 6.00 Build 0)  -->
<svg version="1.1" xmlns="http://www.w3.org/2000/svg" xmlns:xlink="http://www.w3.org/1999/xlink" x="0px" y="0px"
	 viewBox="0 0 1920 1080" style="enable-background:new 0 0 1920 1080;" xml:space="preserve">
<style type="text/css">
	.st0{fill:#FFEA93;}
	.st1{fill:#A4A936;}
	.st2{fill:#7E8B59;}
	.st3{fill:#B4964A;}
	.st4{fill:#4D433E;}
	.st5{fill:#E9B034;}
	.st6{fill:#B8C03D;}
	.st7{fill:#F5C789;}
	.st8{fill:#7A3129;}
	.st9{fill:#B36443;}
	.st10{fill:#F7D48D;}
	.st11{fill:#7AA363;}
	.st12{fill:#E89834;}
	.st13{fill:#E3872F;}
</style>
<g id="background">
	<rect id="background_6_" class="st0" width="1920" height="1080"/>
</g>
<g id="deuxième_partie_herbe_00000094594013679258585150000002249169164268967575_">
	<rect id="deuxième_partie_herbe" x="0.1" y="591.8" class="st1" width="1919.9" height="488.2"/>
</g>
<g id="herbe_00000080926111785604430940000010941994426015136431_">
	<polygon id="herbe" class="st2" points="853.4,591.8 0.1,822.3 0.1,1080 1920,1080 1920,822.3 1066.7,591.8 	"/>
</g>
<g id="contour_route_00000102525743148173353260000008172200413604718750_">
	<polygon id="contour_route" class="st3" points="1910,1080 10,1080 910.6,591.8 1009.4,591.8 	"/>
</g>
<g id="route_00000012468041209568773990000002025876579911888311_">
	<polygon id="route" class="st4" points="1745.7,1080 174.4,1080 921,591.8 999,591.8 	"/>
</g>
<g id="trait_route_droite">
	<path class="st5" d="M866,1057.1"/>
	<polygon class="st5" points="961.2,1080 962.7,985.4 994.1,985.4 1000.3,1080 	"/>
</g>
<g id="background_2">
	
		<rect id="background_2_00000000192103177840577710000005661053857299290537_" x="911.7" y="460" class="st0" width="101.3" height="130.8"/>
</g>
<g id="herbe_droite_00000075150110200994812190000016316358619454928035_">
	<polygon id="herbe_droite" class="st6" points="1920,629.9 1920,749.4 1088,591.8 1232,591.8 	"/>
</g>
<g id="herbe_gauche_00000102516001461910243670000008079695405078420613_">
	<polygon id="herbe_gauche" class="st6" points="0.1,629.9 0.1,749.4 832,591.8 688,591.8 	"/>
</g>
<g id="nuage2">
	<g>
		<g>
			<polygon class="st7" points="37.7,577.2 1284.3,577.2 1284.3,551.4 80.4,551.4 			"/>
			<rect x="1324.2" y="551.4" class="st7" width="514" height="25.9"/>
		</g>
		<path class="st7" d="M1283.9,533.2c0.6-2.4,1-4.9,1-7.4c0-24.3-28.6-43.9-63.9-43.9c-21.7,0-40.9,7.5-52.4,18.9
			c-5.8-29.7-42.8-52.7-87.7-52.7c-46,0-83.7,24.1-88.1,54.9c-11.2-12.6-31.4-21.1-54.5-21.1c-31.1,0-57,15.3-62.7,35.6
			c-8-5.3-18.8-8.5-30.7-8.5c-21.4,0-39.3,10.4-43.4,24.3H1283.9z"/>
		<path class="st7" d="M1828.5,533.2c0.5-1.8,0.8-3.7,0.8-5.7c0-17.9-21.2-32.5-47.3-32.5c-25,0-45.5,13.4-47.1,30.3
			c-5.8-7.2-16.9-12-29.7-12c-3.8,0-7.4,0.4-10.8,1.2c5.1-8.5,7.9-17.9,7.9-27.6c0-40.4-47.6-73.1-106.3-73.1
			c-58.7,0-106.3,32.7-106.3,73.1c0,5.9,1,11.6,2.9,17c-8.5-5.5-19.9-8.9-32.5-8.9c-6.7,0-13.1,1-18.8,2.7c-10.3-13.7-31.1-23-55-23
			c-34.3,0-62,19.1-62,42.6c0,5.6,1.6,10.9,4.5,15.8H1828.5z"/>
		<path class="st7" d="M963.3,533.2c-6.9-14.5-26.6-24.9-50-24.9c-13.2,0-25.2,3.4-34.4,8.9c1.8-5.5,2.7-11.3,2.7-17.2
			c0-44.6-52.6-80.7-117.4-80.7c-64.1,0-116.2,35.3-117.3,79.2c-12.6-8.5-29.9-13.8-49-13.8c-34.2,0-62.6,16.9-68.6,39.2
			c-9.5-9.4-25.3-15.6-43.2-15.6c-12.9,0-24.8,3.2-33.9,8.6c0-0.3,0-0.7,0-1C452.2,480,410,451,358,451c-30.9,0-58.3,10.2-75.5,26
			c-14.4-33.4-59.3-57.8-112.5-57.8c-64.8,0-117.4,36.1-117.4,80.7c0,11.9,3.8,23.1,10.4,33.3H963.3z"/>
	</g>
</g>
<g id="montagne_gauche">
	<g id="Montagne_gauche">
		<polygon class="st8" points="796.5,461 688.4,438.2 662.8,572.9 625.8,574.7 605.9,484.2 350,463.7 335.9,580.3 320,581.7 
			311.3,467.2 283.2,469.8 233.1,527.6 24.2,558.1 0.1,591.8 853.4,591.8 		"/>
		<g>
			<polygon class="st9" points="81.8,591.8 0.1,591.8 24.2,558.1 81.8,549.6 			"/>
			<polygon class="st9" points="142.3,540.8 154.7,539 154.7,591.8 142.3,591.8 			"/>
			<polygon class="st9" points="234.7,525.8 280.6,472.8 280.6,591.8 234.7,591.8 			"/>
			<polygon class="st9" points="336,579.3 350,463.7 351,463.8 351,591.8 336,591.8 			"/>
			<polygon class="st9" points="476.8,473.9 491.8,475.1 491.8,591.8 476.8,591.8 			"/>
			<polygon class="st9" points="506.7,476.3 530.2,478.1 530.2,591.8 506.7,591.8 			"/>
			<polygon class="st9" points="662.4,572.9 662.8,572.9 688,440.1 688,591.8 662.4,591.8 			"/>
		</g>
	</g>
</g>
<g id="montagne_droite">
	<g id="Montagne_droite">
		<polygon class="st9" points="1920,414.2 1303.5,469.8 1253.5,527.6 1044.5,558.1 1020.4,591.8 1920,591.8 		"/>
		<g>
			<polygon class="st8" points="1400.9,461 1400.9,591.8 1375.3,591.8 1375.3,463.3 			"/>
			<polygon class="st8" points="1850.3,420.5 1920,414.2 1920,591.8 1850.3,591.8 			"/>
			<polygon class="st8" points="1757.9,428.8 1757.9,591.8 1607.1,591.8 1607.1,442.4 			"/>
			<polygon class="st8" points="1582.9,444.6 1582.9,591.8 1443.6,591.8 1443.6,457.1 			"/>
			<polygon class="st8" points="1237.4,529.9 1253.4,527.6 1253.4,591.8 1237.4,591.8 			"/>
		</g>
	</g>
</g>
<g id="nuage_00000025400879823688952210000010300671958839035789_">
	<g>
		<path class="st10" d="M1356,307.1c0.3-1.7,0.4-3.4,0.4-5.1c0-26.4-31.1-47.8-69.5-47.8c-23.6,0-44.5,8.1-57,20.5
			c-6.3-32.3-46.6-57.3-95.3-57.3c-50,0-91,26.2-95.7,59.7c-12.2-13.7-34.1-22.9-59.3-22.9c-33.8,0-62,16.6-68.2,38.7
			c-8.7-5.7-20.4-9.3-33.4-9.3c-21.7,0-40,9.9-46,23.4H1356z"/>
		<path class="st7" d="M687,364.8c0.1-1.2,0.3-2.4,0.3-3.7c0-29.2-34.5-52.9-77-52.9c-40.3,0-73.2,21.3-76.6,48.3
			c-4-0.8-8.2-1.3-12.6-1.3c-11.1,0-21.2,2.9-28.8,7.7c-0.5-0.4-0.9-0.8-1.4-1.1c-6.4-18.8-30.8-32.7-60.1-32.7
			c-22.3,0-41.8,8.2-52.7,20.4c-4.2-29.8-40.7-53.1-85.1-53.1c-43.3,0-79.1,22.2-84.7,50.9c-11.2-11-29.7-18.2-50.7-18.2
			c-30.7,0-56.2,15.5-60.9,35.7H687z"/>
		<path class="st7" d="M1753.7,357.7c3.7-3.8,5.8-8.3,5.8-13.1c0-13-15.3-23.5-34.2-23.5c-18.1,0-32.9,9.7-34.1,21.9
			c-4.2-5.2-12.2-8.7-21.5-8.7c-2.7,0-5.4,0.3-7.8,0.9c3.7-6.2,5.7-12.9,5.7-20c0-29.2-34.5-52.9-77-52.9c-42.5,0-77,23.7-77,52.9
			c0,4.3,0.7,8.4,2.1,12.3c-6.1-4-14.4-6.5-23.5-6.5c-4.8,0-9.4,0.7-13.6,2c-7.5-9.9-22.5-16.7-39.8-16.7
			c-24.8,0-44.9,13.8-44.9,30.9c0,7.9,4.3,15,11.4,20.5H1753.7z"/>
		<path class="st10" d="M1744.9,178.8c-7.6-17.7-31.4-30.6-59.6-30.6c-15.6,0-29.8,4-40.7,10.5c2.1-6.6,3.2-13.4,3.2-20.3
			c0-52.7-62.1-95.3-138.7-95.3c-75.7,0-137.3,41.8-138.6,93.6c-14.9-10.1-35.3-16.3-57.9-16.3c-40.4,0-73.9,20-81,46.3
			c-11.2-11.1-29.9-18.4-51.1-18.4c-15.3,0-29.3,3.8-40.1,10.1c0-0.4,0-0.8,0-1.2c0-42.3-49.9-76.6-111.4-76.6
			c-36.5,0-68.9,12.1-89.2,30.7C923,71.8,869.9,43,806.9,43c-76.6,0-138.7,42.7-138.7,95.3c0,14.5,4.7,28.2,13.1,40.5H1744.9z"/>
		<path class="st10" d="M532.4,189.1c0.5-1.9,0.8-3.9,0.8-6c0-18.7-22-33.9-49.2-33.9c-3.7,0-7.2,0.3-10.6,0.8
			c2.7-3.7,4.2-7.8,4.2-12.1c0-14.9-17.6-27-39.3-27c-15.1,0-28.3,5.9-34.8,14.5c-13.8-9-32.4-14.5-52.9-14.5
			c-42.5,0-77,23.7-77,52.9c0,4.3,0.7,8.4,2.1,12.3c-6.1-4-14.4-6.5-23.5-6.5c-4.8,0-9.4,0.7-13.6,2c-7.5-9.9-22.5-16.7-39.8-16.7
			c-24.8,0-44.9,13.8-44.9,30.9c0,1.1,0.1,2.2,0.2,3.2H532.4z"/>
	</g>
</g>
<g id="arbre_vert_gauche_8_00000084498246603099283020000005411661460489169845_">
	<polygon id="arbre_vert_gauche_8" class="st11" points="586.4,539.2 565.3,604.6 612.2,604.6 	"/>
</g>
<g id="arbre_vert_gauche_7_00000181777470053219122810000013750622152422994587_">
	<polygon id="arbre_vert_gauche_7" class="st11" points="545.4,535 521.9,608.2 574.3,608.2 	"/>
</g>
<g id="arbre_vert_gauche_6_00000159432808094903719280000008450616881791380398_">
	<polygon id="arbre_vert_gauche_6" class="st11" points="504.7,530.4 478.3,612.4 537,612.4 	"/>
</g>
<g id="arbre_vert_gauche_5_00000077283419715129676860000000187825069774505911_">
	<polygon id="arbre_vert_gauche_5" class="st11" points="451.4,526.2 422.1,617 487.1,617 	"/>
</g>
<g id="arbre_vert_gauche_4_00000087414825458218873620000016470602520572854699_">
	<polygon id="arbre_vert_gauche_4" class="st11" points="381.4,519.4 348.2,622.6 422.1,622.6 	"/>
</g>
<g id="arbre_vert_gauche_3_00000051350734216943433320000018160669456372539038_">
	<polygon id="arbre_vert_gauche_3" class="st11" points="301.3,511.6 263.3,629.4 347.7,629.4 	"/>
</g>
<g id="arbre_vert_gauche_2_00000008138944432568863750000004750960184369344140_">
	<polygon id="arbre_vert_gauche_2" class="st11" points="199.4,501.5 155,639.1 253.6,639.1 	"/>
</g>
<g id="arbre_vert_gauche_1_00000111908035891285128820000003851058918405201337_">
	<polygon id="arbre_vert_gauche_1" class="st11" points="78.5,485 25.7,649 143.1,649 	"/>
</g>
<g id="arbre_vert_droite_8_00000006704623146945579590000007375931324434101899_">
	<polygon id="arbre_vert_droite_8" class="st11" points="1308,539.2 1329,604.6 1282.2,604.6 	"/>
</g>
<g id="arbre_vert_droite_7_00000121969235662907080470000016486062808037349019_">
	<polygon id="arbre_vert_droite_7" class="st11" points="1348.9,535 1372.5,608.2 1320.1,608.2 	"/>
</g>
<g id="arbre_vert_droite_6_00000118363091500319661110000003814123375732754831_">
	<polygon id="arbre_vert_droite_6" class="st11" points="1389.7,530.4 1416.1,612.4 1357.4,612.4 	"/>
</g>
<g id="arbre_vert_droite_5_00000001634684611828131750000004396589340288969403_">
	<polygon id="arbre_vert_droite_5" class="st11" points="1443,526.2 1472.3,617 1407.2,617 	"/>
</g>
<g id="arbre_vert_droite_4_00000116221510356894084910000006391660511210144135_">
	<polygon id="arbre_vert_droite_4" class="st11" points="1512.9,519.4 1546.2,622.6 1472.3,622.6 	"/>
</g>
<g id="arbre_vert_droite_3_00000003789084215628841520000012231134877548720288_">
	<polygon id="arbre_vert_droite_3" class="st11" points="1593.1,511.6 1631,629.4 1546.7,629.4 	"/>
</g>
<g id="arbre_vert_droite_2_00000131347075795717011340000008040335444945372067_">
	<polygon id="arbre_vert_droite_2" class="st11" points="1695,501.5 1739.3,639.1 1640.8,639.1 	"/>
</g>
<g id="arbre_vert_droite_1_00000069359414902123820890000004434170146082014595_">
	<polygon id="arbre_vert_droite_1" class="st11" points="1815.9,485 1868.7,649 1751.3,649 	"/>
</g>
<g id="arbre_orange_droite_7_00000052822503393732426160000012799303002672819119_">
	<g id="arbre_orange_droite_7">
		
			<rect x="1221.4" y="592.9" transform="matrix(-1 -1.224647e-16 1.224647e-16 -1 2448.7197 1203.4589)" class="st9" width="5.9" height="17.7"/>
		<path class="st12" d="M1207.8,601.3c-0.8-3.2-1.2-6.7-1.2-10.4c0-15.8,7.9-28.6,17.7-28.6c9.8,0,17.7,12.8,17.7,28.6
			c0,3.7-0.4,7.2-1.2,10.4H1207.8z"/>
		<path class="st13" d="M1224.4,562.3c9.7,0.1,17.5,12.9,17.5,28.6c0,3.7-0.4,7.2-1.2,10.4h-16.3V562.3z"/>
	</g>
</g>
<g id="arbre_orange_droite_6_00000027596435125731890260000013705137478476672646_">
	<g id="arbre_orange_droite_6">
		
			<rect x="1254" y="594.8" transform="matrix(-1 -1.224647e-16 1.224647e-16 -1 2515.0796 1211.0405)" class="st9" width="7.1" height="21.4"/>
		<path class="st12" d="M1237.5,605c-0.9-3.9-1.5-8.1-1.5-12.5c0-19.1,9.5-34.5,21.3-34.5c11.8,0,21.3,15.4,21.3,34.5
			c0,4.4-0.5,8.6-1.5,12.5H1237.5z"/>
		<path class="st13" d="M1257.5,557.9c11.7,0.1,21.2,15.5,21.2,34.5c0,4.4-0.5,8.6-1.5,12.5h-19.7V557.9z"/>
	</g>
</g>
<g id="arbre_orange_droite_5_00000122691083249504302540000016926657035586353061_">
	<g id="arbre_orange_droite_5">
		
			<rect x="1298" y="597.6" transform="matrix(-1 -1.224647e-16 1.224647e-16 -1 2604.4534 1220.4355)" class="st9" width="8.4" height="25.2"/>
		<path class="st12" d="M1278.6,609.6c-1.1-4.6-1.7-9.6-1.7-14.8c0-22.5,11.3-40.8,25.2-40.8s25.2,18.3,25.2,40.8
			c0,5.2-0.6,10.2-1.7,14.8H1278.6z"/>
		<path class="st13" d="M1302.2,554c13.8,0.2,25,18.3,25,40.8c0,5.2-0.6,10.2-1.7,14.8h-23.3V554z"/>
	</g>
</g>
<g id="arbre_orange_droite_4_00000102517697168371986160000007901812593674673036_">
	<g id="arbre_orange_droite_4">
		
			<rect x="1362.2" y="601.9" transform="matrix(-1 -1.224647e-16 1.224647e-16 -1 2734.7412 1234.9988)" class="st9" width="10.4" height="31.2"/>
		<path class="st12" d="M1338.2,616.7c-1.4-5.7-2.1-11.8-2.1-18.3c0-27.8,13.9-50.4,31.1-50.4c17.2,0,31.1,22.6,31.1,50.4
			c0,6.5-0.8,12.6-2.1,18.3H1338.2z"/>
		<path class="st13" d="M1367.4,548c17.1,0.2,30.9,22.7,30.9,50.4c0,6.5-0.8,12.6-2.1,18.3h-28.8V548z"/>
	</g>
</g>
<g id="arbre_orange_droite_3_00000146486370577569870380000010811157433571764927_">
	<g id="arbre_orange_droite_3">
		
			<rect x="1459.4" y="610.6" transform="matrix(-1 -1.224647e-16 1.224647e-16 -1 2932.0596 1260.9156)" class="st9" width="13.2" height="39.8"/>
		<path class="st12" d="M1428.8,629.4c-1.7-7.2-2.7-15.1-2.7-23.3c0-35.5,17.8-64.2,39.7-64.2s39.7,28.8,39.7,64.2
			c0,8.2-1,16.1-2.7,23.3H1428.8z"/>
		<path class="st13" d="M1466,541.9c21.8,0.2,39.4,28.9,39.4,64.2c0,8.2-1,16.1-2.7,23.3H1466V541.9z"/>
	</g>
</g>
<g id="arbre_orange_droite_2_00000106116149934181547530000015519882240791411868_">
	<g id="arbre_orange_droite_2">
		
			<rect x="1599.2" y="625.5" transform="matrix(-1 -1.224647e-16 1.224647e-16 -1 3215.157 1301.4893)" class="st9" width="16.8" height="50.5"/>
		<path class="st12" d="M1560.3,649.4c-2.2-9.2-3.4-19.1-3.4-29.6c0-45,22.5-81.5,50.3-81.5c27.8,0,50.3,36.5,50.3,81.5
			c0,10.4-1.2,20.4-3.4,29.6H1560.3z"/>
		<path class="st13" d="M1607.6,538.4c27.6,0.3,50,36.7,50,81.5c0,10.4-1.2,20.4-3.4,29.6h-46.5V538.4z"/>
	</g>
</g>
<g id="arbre_orange_droite_1_00000096743465940552380590000014689469148581051325_">
	<g id="arbre_orange_droite_1">
		
			<rect x="1806.7" y="648.2" transform="matrix(-1 -1.224647e-16 1.224647e-16 -1 3636.218 1364.855)" class="st9" width="22.7" height="68.4"/>
		<path class="st12" d="M1754.1,680.7c-3-12.4-4.6-25.9-4.6-40.1c0-61,30.5-110.4,68.2-110.4c37.7,0,68.2,49.4,68.2,110.4
			c0,14.1-1.7,27.6-4.6,40.1H1754.1z"/>
		<path class="st13" d="M1818.1,530.2c37.4,0.4,67.7,49.7,67.7,110.4c0,14.1-1.7,27.6-4.6,40.1h-63.1V530.2z"/>
	</g>
</g>
<g id="arbre_orange_gauche_7_00000082363375465978688460000005673009635810672315_">
	<g id="arbre_orange_gauche_7">
		<rect x="721.5" y="592.9" class="st9" width="5.9" height="17.7"/>
		<path class="st12" d="M741,601.3c0.8-3.2,1.2-6.7,1.2-10.4c0-15.8-7.9-28.6-17.7-28.6c-9.8,0-17.7,12.8-17.7,28.6
			c0,3.7,0.4,7.2,1.2,10.4H741z"/>
		<path class="st13" d="M724.4,562.3c-9.7,0.1-17.5,12.9-17.5,28.6c0,3.7,0.4,7.2,1.2,10.4h16.3V562.3z"/>
	</g>
</g>
<g id="arbre_orange_gauche_6_00000132771650507255073420000008888917530668758149_">
	<g id="arbre_orange_gauche_6">
		<rect x="687.7" y="594.8" class="st9" width="7.1" height="21.4"/>
		<path class="st12" d="M711.3,605c0.9-3.9,1.5-8.1,1.5-12.5c0-19.1-9.5-34.5-21.3-34.5c-11.8,0-21.3,15.4-21.3,34.5
			c0,4.4,0.5,8.6,1.5,12.5H711.3z"/>
		<path class="st13" d="M691.3,557.9c-11.7,0.1-21.2,15.5-21.2,34.5c0,4.4,0.5,8.6,1.5,12.5h19.7V557.9z"/>
	</g>
</g>
<g id="arbre_orange_gauche_3_00000180347423446287758020000015120092008821095314_">
	<g id="arbre_orange_gauche_3">
		<rect x="476.2" y="610.6" class="st9" width="13.2" height="39.8"/>
		<path class="st12" d="M520,629.4c1.7-7.2,2.7-15.1,2.7-23.3c0-35.5-17.8-64.2-39.7-64.2c-21.9,0-39.7,28.8-39.7,64.2
			c0,8.2,1,16.1,2.7,23.3H520z"/>
		<path class="st13" d="M482.8,541.9c-21.8,0.2-39.4,28.9-39.4,64.2c0,8.2,1,16.1,2.7,23.3h36.7V541.9z"/>
	</g>
</g>
<g id="arbre_orange_gauche_4_00000150814069602237411760000013505696134091452314_">
	<g id="arbre_orange_gauche_4">
		<rect x="576.2" y="601.9" class="st9" width="10.4" height="31.2"/>
		<path class="st12" d="M610.7,616.7c1.4-5.7,2.1-11.8,2.1-18.3c0-27.8-13.9-50.4-31.1-50.4c-17.2,0-31.1,22.6-31.1,50.4
			c0,6.5,0.8,12.6,2.1,18.3H610.7z"/>
		<path class="st13" d="M581.4,548c-17.1,0.2-30.9,22.7-30.9,50.4c0,6.5,0.8,12.6,2.1,18.3h28.8V548z"/>
	</g>
</g>
<g id="arbre_orange_gauche_5_00000006697837564928159910000014050972804454580610_">
	<g id="arbre_orange_gauche_5">
		<rect x="642.4" y="597.6" class="st9" width="8.4" height="25.2"/>
		<path class="st12" d="M670.2,609.6c1.1-4.6,1.7-9.6,1.7-14.8c0-22.5-11.3-40.8-25.2-40.8s-25.2,18.3-25.2,40.8
			c0,5.2,0.6,10.2,1.7,14.8H670.2z"/>
		<path class="st13" d="M646.6,554c-13.8,0.2-25,18.3-25,40.8c0,5.2,0.6,10.2,1.7,14.8h23.3V554z"/>
	</g>
</g>
<g id="arbre_orange_gauche_1_00000114050364528754348310000016283603286190699455_">
	<g id="arbre_orange_gauche_1">
		<rect x="119.3" y="648.2" class="st9" width="22.7" height="68.4"/>
		<path class="st12" d="M194.7,680.7c3-12.4,4.6-25.9,4.6-40.1c0-61-30.5-110.4-68.2-110.4c-37.7,0-68.2,49.4-68.2,110.4
			c0,14.1,1.7,27.6,4.6,40.1H194.7z"/>
		<path class="st13" d="M130.7,530.2C93.3,530.6,63,579.9,63,640.6c0,14.1,1.7,27.6,4.6,40.1h63.1V530.2z"/>
	</g>
</g>
<g id="arbre_orange_gauche_2_00000129163450031344906390000005348586992472454590_">
	<g id="arbre_orange_gauche_2">
		<rect x="332.8" y="625.5" class="st9" width="16.8" height="50.5"/>
		<path class="st12" d="M388.5,649.4c2.2-9.2,3.4-19.1,3.4-29.6c0-45-22.5-81.5-50.3-81.5c-27.8,0-50.3,36.5-50.3,81.5
			c0,10.4,1.2,20.4,3.4,29.6H388.5z"/>
		<path class="st13" d="M341.2,538.4c-27.6,0.3-50,36.7-50,81.5c0,10.4,1.2,20.4,3.4,29.6h46.5V538.4z"/>
	</g>
</g>
</svg>
