<?xml version="1.0" encoding="UTF-8"?>
<svg id="Calque_2" data-name="Calque 2" xmlns="http://www.w3.org/2000/svg" viewBox="0 0 1800.48 163.44">
  <defs>
    <style>
      .cls-1 {
        fill: #f5c789;
        stroke-width: 0px;
      }
    </style>
  </defs>
  <g id="nuage2">
    <g>
      <g>
        <polygon class="cls-1" points="0 163.44 1246.54 163.44 1246.54 137.59 42.67 137.59 0 163.44"/>
        <rect class="cls-1" x="1286.48" y="137.59" width="514" height="25.85"/>
      </g>
      <path class="cls-1" d="m1246.19,119.36c.6-2.42.98-4.89.98-7.42,0-24.27-28.62-43.94-63.92-43.94-21.73,0-40.89,7.47-52.44,18.86-5.81-29.73-42.84-52.66-87.68-52.66s-83.71,24.08-88.07,54.88c-11.23-12.63-31.41-21.08-54.51-21.08-31.13,0-57.04,15.31-62.73,35.58-7.96-5.28-18.76-8.54-30.69-8.54-21.4,0-39.25,10.45-43.36,24.32h482.41Z"/>
      <path class="cls-1" d="m1790.75,119.36c.47-1.84.76-3.72.76-5.66,0-17.94-21.16-32.49-47.26-32.49s-45.45,13.38-47.09,30.3c-5.8-7.17-16.92-12.03-29.69-12.03-3.79,0-7.43.45-10.84,1.24,5.07-8.53,7.88-17.85,7.88-27.63,0-40.37-47.6-73.1-106.32-73.1s-106.32,32.73-106.32,73.1c0,5.87,1.04,11.58,2.94,17.05-8.47-5.52-19.88-8.93-32.47-8.93-6.69,0-13.05.97-18.82,2.69-10.34-13.66-31.07-23-55.02-23-34.25,0-62.02,19.09-62.02,42.64,0,5.59,1.61,10.92,4.45,15.81h499.82Z"/>
      <path class="cls-1" d="m925.58,119.36c-6.89-14.46-26.65-24.92-49.99-24.92-13.19,0-25.21,3.36-34.44,8.87,1.75-5.55,2.7-11.3,2.7-17.22,0-44.57-52.55-80.7-117.38-80.7s-116.18,35.34-117.32,79.23c-12.6-8.54-29.89-13.82-48.98-13.82-34.18,0-62.56,16.9-68.58,39.19-9.5-9.4-25.3-15.56-43.21-15.56-12.95,0-24.78,3.23-33.95,8.56,0-.34.04-.67.04-1.01,0-35.79-42.2-64.8-94.25-64.8-30.88,0-58.28,10.21-75.47,25.98-14.37-33.4-59.3-57.79-112.55-57.79C67.38,5.4,14.83,41.53,14.83,86.09c0,11.87,3.76,23.12,10.45,33.27h900.3Z"/>
    </g>
  </g>
</svg>