<?xml version="1.0" encoding="UTF-8"?>
<svg id="Calque_2" data-name="Calque 2" xmlns="http://www.w3.org/2000/svg" viewBox="0 0 590.67 68.35">
  <defs>
    <style>
      .cls-1 {
        fill: #f5c789;
        stroke-width: 0px;
      }
    </style>
  </defs>
  <g id="nuage">
    <path class="cls-1" d="m590.4,68.35c.12-1.21.26-2.42.26-3.65,0-29.23-34.46-52.92-76.98-52.92-40.26,0-73.25,21.26-76.64,48.33-3.98-.84-8.2-1.3-12.59-1.3-11.11,0-21.19,2.95-28.79,7.72-.48-.38-.94-.76-1.45-1.12-6.41-18.75-30.82-32.74-60.06-32.74-22.33,0-41.84,8.17-52.69,20.38C277.27,23.27,240.77,0,196.36,0s-79.13,22.16-84.75,50.9c-11.16-11.01-29.69-18.23-50.69-18.23-30.75,0-56.18,15.46-60.92,35.68h590.4Z"/>
  </g>
</svg>