<?xml version="1.0" encoding="UTF-8"?>
<svg id="Calque_2" data-name="Calque 2" xmlns="http://www.w3.org/2000/svg" viewBox="0 0 1591.04 146.09">
  <defs>
    <style>
      .cls-1 {
        fill: #f7d48d;
        stroke-width: 0px;
      }
    </style>
  </defs>
  <g id="nuage">
    <path class="cls-1" d="m1591.04,135.82c-7.61-17.69-31.39-30.6-59.59-30.6-15.58,0-29.78,3.97-40.69,10.48,2.07-6.56,3.2-13.36,3.2-20.34,0-52.66-62.09-95.35-138.69-95.35s-137.27,41.76-138.63,93.61c-14.89-10.09-35.31-16.33-57.87-16.33-40.38,0-73.92,19.96-81.03,46.31-11.23-11.1-29.89-18.39-51.05-18.39-15.3,0-29.28,3.81-40.11,10.11,0-.4.04-.79.04-1.19,0-42.28-49.86-76.56-111.36-76.56-36.48,0-68.87,12.06-89.18,30.7C769.1,28.81,716.01,0,653.09,0c-76.6,0-138.69,42.69-138.69,95.35,0,14.47,4.71,28.18,13.1,40.47h1063.53Z"/>
    <path class="cls-1" d="m378.5,146.09c.51-1.95.82-3.95.82-5.99,0-18.7-22.05-33.85-49.24-33.85-3.65,0-7.2.29-10.62.81,2.68-3.65,4.22-7.76,4.22-12.13,0-14.92-17.59-27.01-39.29-27.01-15.14,0-28.25,5.89-34.81,14.52-13.79-8.98-32.37-14.52-52.86-14.52-42.51,0-76.98,23.69-76.98,52.92,0,4.25.75,8.38,2.13,12.34-6.13-4-14.39-6.46-23.51-6.46-4.85,0-9.45.7-13.63,1.95-7.48-9.89-22.5-16.65-39.83-16.65-24.8,0-44.9,13.82-44.9,30.87,0,1.08.08,2.15.24,3.21h378.26Z"/>
  </g>
</svg>