<?xml version="1.0" encoding="UTF-8"?>
<svg id="Calque_2" data-name="Calque 2" xmlns="http://www.w3.org/2000/svg" viewBox="0 0 927.53 140.26">
  <defs>
    <style>
      .cls-1 {
        fill: #f7d48d;
      }

      .cls-1, .cls-2 {
        stroke-width: 0px;
      }

      .cls-2 {
        fill: #f5c789;
      }
    </style>
  </defs>
  <g id="nuage">
    <g>
      <path class="cls-1" d="m523.98,89.59c.26-1.67.4-3.36.4-5.08,0-26.38-31.11-47.77-69.48-47.77-23.62,0-44.46,8.12-57.01,20.51C391.57,24.93,351.32,0,302.57,0s-91.01,26.18-95.74,59.67c-12.21-13.73-34.14-22.92-59.26-22.92-33.85,0-62.01,16.65-68.19,38.68-8.65-5.73-20.4-9.28-33.36-9.28-21.7,0-40.03,9.88-46.02,23.45h523.98Z"/>
      <path class="cls-2" d="m921.7,140.26c3.68-3.75,5.83-8.27,5.83-13.14,0-12.99-15.32-23.52-34.21-23.52s-32.91,9.69-34.1,21.94c-4.2-5.19-12.25-8.71-21.5-8.71-2.75,0-5.38.32-7.85.89,3.67-6.17,5.71-12.92,5.71-20,0-29.23-34.46-52.92-76.98-52.92s-76.98,23.69-76.98,52.92c0,4.25.75,8.38,2.13,12.34-6.13-4-14.39-6.46-23.51-6.46-4.85,0-9.45.7-13.63,1.95-7.48-9.89-22.5-16.65-39.83-16.65-24.8,0-44.9,13.82-44.9,30.87,0,7.87,4.32,15.03,11.38,20.49h348.42Z"/>
    </g>
  </g>
</svg>