<?xml version="1.0" encoding="UTF-8"?>
<svg id="Calque_2" data-name="Calque 2" xmlns="http://www.w3.org/2000/svg" viewBox="0 0 379.32 78.18">
  <defs>
    <style>
      .cls-1 {
        fill: #f7d48d;
        stroke-width: 0px;
      }
    </style>
  </defs>
  <g id="nuage">
    <path class="cls-1" d="m378.5,78.18c.51-1.95.82-3.95.82-5.99,0-18.7-22.05-33.85-49.24-33.85-3.65,0-7.2.29-10.62.81,2.68-3.65,4.22-7.76,4.22-12.13,0-14.92-17.59-27.01-39.29-27.01-15.14,0-28.25,5.89-34.81,14.52C235.78,5.54,217.21,0,196.72,0c-42.51,0-76.98,23.69-76.98,52.92,0,4.25.75,8.38,2.13,12.34-6.13-4-14.39-6.46-23.51-6.46-4.85,0-9.45.7-13.63,1.95-7.48-9.89-22.5-16.65-39.83-16.65C20.1,44.1,0,57.92,0,74.97c0,1.08.08,2.15.24,3.21h378.26Z"/>
  </g>
</svg>