<?xml version="1.0" encoding="UTF-8"?>
<svg id="Calque_2" data-name="Calque 2" xmlns="http://www.w3.org/2000/svg" viewBox="0 0 1800.48 534.24">
  <defs>
    <style>
      .cls-1 {
        fill: #f7d48d;
      }

      .cls-1, .cls-2 {
        stroke-width: 0px;
      }

      .cls-2 {
        fill: #f5c789;
      }
    </style>
  </defs>
  <g id="nuage2">
    <g>
      <g>
        <polygon class="cls-2" points="0 534.24 1246.54 534.24 1246.54 508.39 42.67 508.39 0 534.24"/>
        <rect class="cls-2" x="1286.48" y="508.39" width="514" height="25.85"/>
      </g>
      <path class="cls-2" d="m1246.19,490.16c.6-2.42.98-4.89.98-7.42,0-24.27-28.62-43.94-63.92-43.94-21.73,0-40.89,7.47-52.44,18.86-5.81-29.73-42.84-52.66-87.68-52.66s-83.71,24.08-88.07,54.88c-11.23-12.63-31.41-21.08-54.51-21.08-31.13,0-57.04,15.31-62.73,35.58-7.96-5.28-18.76-8.54-30.69-8.54-21.4,0-39.25,10.45-43.36,24.32h482.41Z"/>
      <path class="cls-2" d="m1790.75,490.16c.47-1.84.76-3.72.76-5.66,0-17.94-21.16-32.49-47.26-32.49s-45.45,13.38-47.09,30.3c-5.8-7.17-16.92-12.03-29.69-12.03-3.79,0-7.43.45-10.84,1.24,5.07-8.53,7.88-17.85,7.88-27.63,0-40.37-47.6-73.1-106.32-73.1s-106.32,32.73-106.32,73.1c0,5.87,1.04,11.58,2.94,17.05-8.47-5.52-19.88-8.93-32.47-8.93-6.69,0-13.05.97-18.82,2.69-10.34-13.66-31.07-23-55.02-23-34.25,0-62.02,19.09-62.02,42.64,0,5.59,1.61,10.92,4.45,15.81h499.82Z"/>
      <path class="cls-2" d="m925.58,490.16c-6.89-14.46-26.65-24.92-49.99-24.92-13.19,0-25.21,3.36-34.44,8.87,1.75-5.55,2.7-11.3,2.7-17.22,0-44.57-52.55-80.7-117.38-80.7s-116.18,35.34-117.32,79.23c-12.6-8.54-29.89-13.82-48.98-13.82-34.18,0-62.56,16.9-68.58,39.19-9.5-9.4-25.3-15.56-43.21-15.56-12.95,0-24.78,3.23-33.95,8.56,0-.34.04-.67.04-1.01,0-35.79-42.2-64.8-94.25-64.8-30.88,0-58.28,10.21-75.47,25.98-14.37-33.4-59.3-57.79-112.55-57.79-64.83,0-117.38,36.13-117.38,80.7,0,11.87,3.76,23.12,10.45,33.27h900.3Z"/>
    </g>
  </g>
  <g id="nuage">
    <path class="cls-2" d="m649.22,321.8c.12-1.21.26-2.42.26-3.65,0-29.23-34.46-52.92-76.98-52.92-40.26,0-73.25,21.26-76.64,48.33-3.98-.84-8.2-1.3-12.59-1.3-11.11,0-21.19,2.95-28.79,7.72-.48-.38-.94-.76-1.45-1.12-6.41-18.75-30.82-32.74-60.06-32.74-22.33,0-41.84,8.17-52.69,20.38-4.21-29.78-40.71-53.05-85.13-53.05s-79.13,22.16-84.75,50.9c-11.16-11.01-29.69-18.23-50.69-18.23-30.75,0-56.18,15.46-60.92,35.68h590.4Z"/>
    <g>
      <path class="cls-1" d="m1318.27,264.07c.26-1.67.4-3.36.4-5.08,0-26.38-31.11-47.77-69.48-47.77-23.62,0-44.46,8.12-57.01,20.51-6.32-32.32-46.57-57.25-95.32-57.25s-91.01,26.18-95.74,59.67c-12.21-13.73-34.14-22.92-59.26-22.92-33.85,0-62.01,16.65-68.19,38.68-8.65-5.73-20.4-9.28-33.36-9.28-21.7,0-40.03,9.88-46.02,23.45h523.98Z"/>
      <path class="cls-2" d="m1715.98,314.73c3.68-3.75,5.83-8.27,5.83-13.14,0-12.99-15.32-23.52-34.21-23.52s-32.91,9.69-34.1,21.94c-4.2-5.19-12.25-8.71-21.5-8.71-2.75,0-5.38.32-7.85.89,3.67-6.17,5.71-12.92,5.71-20,0-29.23-34.46-52.92-76.98-52.92s-76.98,23.69-76.98,52.92c0,4.25.75,8.38,2.13,12.34-6.13-4-14.39-6.46-23.51-6.46-4.85,0-9.45.7-13.63,1.95-7.48-9.89-22.5-16.65-39.83-16.65-24.8,0-44.9,13.82-44.9,30.87,0,7.87,4.32,15.03,11.38,20.49h348.42Z"/>
    </g>
    <path class="cls-1" d="m1707.14,135.82c-7.61-17.69-31.39-30.6-59.59-30.6-15.58,0-29.78,3.97-40.69,10.48,2.07-6.56,3.2-13.36,3.2-20.34,0-52.66-62.09-95.35-138.69-95.35s-137.27,41.76-138.63,93.61c-14.89-10.09-35.31-16.33-57.87-16.33-40.38,0-73.92,19.96-81.03,46.31-11.23-11.1-29.89-18.39-51.05-18.39-15.3,0-29.28,3.81-40.11,10.11,0-.4.04-.79.04-1.19,0-42.28-49.86-76.56-111.36-76.56-36.48,0-68.87,12.06-89.18,30.7C885.2,28.81,832.11,0,769.2,0c-76.6,0-138.69,42.69-138.69,95.35,0,14.47,4.71,28.18,13.1,40.47h1063.53Z"/>
    <path class="cls-1" d="m494.61,146.09c.51-1.95.82-3.95.82-5.99,0-18.7-22.05-33.85-49.24-33.85-3.65,0-7.2.29-10.62.81,2.68-3.65,4.22-7.76,4.22-12.13,0-14.92-17.59-27.01-39.29-27.01-15.14,0-28.25,5.89-34.81,14.52-13.79-8.98-32.37-14.52-52.86-14.52-42.51,0-76.98,23.69-76.98,52.92,0,4.25.75,8.38,2.13,12.34-6.13-4-14.39-6.46-23.51-6.46-4.85,0-9.45.7-13.63,1.95-7.48-9.89-22.5-16.65-39.83-16.65-24.8,0-44.9,13.82-44.9,30.87,0,1.08.08,2.15.24,3.21h378.26Z"/>
  </g>
</svg>